<svg width="32" height="32" viewBox="0 0 32 32" fill="none" xmlns="http://www.w3.org/2000/svg">
  <defs>
    <linearGradient id="brain-gradient" x1="0%" y1="0%" x2="100%" y2="100%">
      <stop offset="0%" style="stop-color:#1B9AAA;stop-opacity:1" />
      <stop offset="100%" style="stop-color:#58B09C;stop-opacity:1" />
    </linearGradient>
  </defs>
  
  <!-- Brain outline -->
  <path d="M16 2C12.5 2 9.5 4.2 8.5 7.2C7.8 6.8 7 6.5 6.2 6.8C4.5 7.5 3.8 9.8 4.8 11.5C4.2 12.2 4 13.2 4.5 14C5 14.8 6 15.2 6.8 14.8C7.2 16.5 8.5 18 10.2 18.8C11 19.2 12 19 12.5 18.2C13.5 18.8 14.7 19 16 19C17.3 19 18.5 18.8 19.5 18.2C20 19 21 19.2 21.8 18.8C23.5 18 24.8 16.5 25.2 14.8C26 15.2 27 14.8 27.5 14C28 13.2 27.8 12.2 27.2 11.5C28.2 9.8 27.5 7.5 25.8 6.8C25 6.5 24.2 6.8 23.5 7.2C22.5 4.2 19.5 2 16 2Z" fill="url(#brain-gradient)" stroke="#E2E8F0" stroke-width="0.5"/>
  
  <!-- Neural connections -->
  <circle cx="12" cy="10" r="1.5" fill="#6AD5CB" opacity="0.8"/>
  <circle cx="20" cy="10" r="1.5" fill="#6AD5CB" opacity="0.8"/>
  <circle cx="16" cy="13" r="1.5" fill="#A1E8CC" opacity="0.8"/>
  <circle cx="10" cy="15" r="1" fill="#CAF7E2" opacity="0.6"/>
  <circle cx="22" cy="15" r="1" fill="#CAF7E2" opacity="0.6"/>
  
  <!-- Connection lines -->
  <line x1="12" y1="10" x2="16" y2="13" stroke="#6AD5CB" stroke-width="1" opacity="0.5"/>
  <line x1="20" y1="10" x2="16" y2="13" stroke="#6AD5CB" stroke-width="1" opacity="0.5"/>
  <line x1="16" y1="13" x2="10" y2="15" stroke="#A1E8CC" stroke-width="1" opacity="0.4"/>
  <line x1="16" y1="13" x2="22" y2="15" stroke="#A1E8CC" stroke-width="1" opacity="0.4"/>
  
  <!-- AI text hint -->
  <text x="16" y="28" text-anchor="middle" font-family="Inter, sans-serif" font-size="6" font-weight="600" fill="#1B9AAA">AI</text>
</svg>